# xmcd
#
# Track frame offsets:
#	150
#	14528
#	53435
#	72539
#	114974
#	152719
#	196050
#	204137
#	243395
#	275300
#	302209
#	328483
#
# Disc length: 4648 seconds
#
# Revision: 1
# Processed by: cddbd v1.5.2PL0 Copyright (c) Steve Scherf et al.
# Submitted via: audiograbber 1.83.01
#
DISCID=a212260c
DTITLE=Grateful Dead - 80-08-26 Cleveland Public Hall, Cleveland OH
DYEAR=1900
DGENRE=
TTITLE0=Don't Ease Me In
TTITLE1=Little Red Rooster
TTITLE2=Far From Me
TTITLE3=Uncle John's Band
TTITLE4=Playing In The Band
TTITLE5=Drums
TTITLE6=Space
TTITLE7=Comes A Time
TTITLE8=Lost Sailor
TTITLE9=Saint Of Circumstance
TTITLE10=Casey Jones
TTITLE11=Johnny B Goode
EXTD=
EXTT0=
EXTT1=
EXTT2=
EXTT3=
EXTT4=
EXTT5=
EXTT6=
EXTT7=
EXTT8=
EXTT9=
EXTT10=
EXTT11=
PLAYORDER=
